<svg xmlns="http://www.w3.org/2000/svg" xmlns:xlink="http://www.w3.org/1999/xlink"  width="338"  height="80" ><line x1="90.4538043478261" y1="18.5" x2="90.140625" y2="17.86994219653179" stroke-width="0.1" stroke="black" /><line x1="108.4538043478261" y1="18.5" x2="108.140625" y2="17.86994219653179" stroke-width="0.1" stroke="black" /><line x1="273.45380434782606" y1="18.5" x2="273.140625" y2="17.86994219653179" stroke-width="0.1" stroke="black" /><line x1="307.1363636363636" y1="18.74736842105263" x2="306.5" y2="18.245689655172413" stroke-width="0.1" stroke="black" /><line x1="325.18055555555554" y1="18.83160621761658" x2="322.5" y2="18.536687631027252" stroke-width="0.1" stroke="black" /><line x1="90.140625" y1="17.86994219653179" x2="79.74375" y2="20.804761904761904" stroke-width="0.1" stroke="black" /><line x1="5.5" y1="19.66321243523316" x2="4.981203007518797" y2="19.981203007518797" stroke-width="0.1" stroke="black" /><line x1="108.140625" y1="17.86994219653179" x2="97.74375" y2="20.804761904761904" stroke-width="0.1" stroke="black" /><line x1="23.39423076923077" y1="19.754980079681275" x2="5.5" y2="19.66321243523316" stroke-width="0.1" stroke="black" /><line x1="273.140625" y1="17.86994219653179" x2="262.74375" y2="20.804761904761904" stroke-width="0.1" stroke="black" /><line x1="322.5" y1="18.536687631027252" x2="321.1195652173913" y2="19.106451612903225" stroke-width="0.1" stroke="black" /><line x1="326.1878048780488" y1="19.799479166666668" x2="325.18055555555554" y2="18.83160621761658" stroke-width="0.1" stroke="black" /><line x1="31.5" y1="19.6497461928934" x2="30.957142857142856" y2="19.957142857142856" stroke-width="0.1" stroke="black" /><line x1="306.5" y1="18.245689655172413" x2="296.8440860215054" y2="20.844086021505376" stroke-width="0.1" stroke="black" /><line x1="49.38607594936709" y1="19.756" x2="31.5" y2="19.6497461928934" stroke-width="0.1" stroke="black" /><line x1="23.803986710963454" y1="20.5" x2="23.39423076923077" y2="19.754980079681275" stroke-width="0.1" stroke="black" /><line x1="49.79537953795379" y1="20.5" x2="49.38607594936709" y2="19.756" stroke-width="0.1" stroke="black" /><line x1="4.981203007518797" y1="19.981203007518797" x2="4.953900709219858" y2="21.04609929078014" stroke-width="0.1" stroke="black" /><line x1="321.1195652173913" y1="19.106451612903225" x2="319.85164835164835" y2="20.75229357798165" stroke-width="0.1" stroke="black" /><line x1="30.957142857142856" y1="19.957142857142856" x2="30.95390070921986" y2="21.04609929078014" stroke-width="0.1" stroke="black" /><line x1="23.410344827586208" y1="21.24089068825911" x2="23.803986710963454" y2="20.5" stroke-width="0.1" stroke="black" /><line x1="49.41034482758621" y1="21.24089068825911" x2="49.79537953795379" y2="20.5" stroke-width="0.1" stroke="black" /><line x1="4.953900709219858" y1="21.04609929078014" x2="7.5" y2="21.660574412532636" stroke-width="0.1" stroke="black" /><line x1="327.0704697986577" y1="21.854166666666668" x2="326.1878048780488" y2="19.799479166666668" stroke-width="0.1" stroke="black" /><line x1="79.74375" y1="20.804761904761904" x2="79.38757396449704" y2="21.5" stroke-width="0.1" stroke="black" /><line x1="97.74375" y1="20.804761904761904" x2="97.38757396449704" y2="21.5" stroke-width="0.1" stroke="black" /><line x1="21.5" y1="21.643589743589743" x2="23.410344827586208" y2="21.24089068825911" stroke-width="0.1" stroke="black" /><line x1="262.74375" y1="20.804761904761904" x2="262.38757396449705" y2="21.5" stroke-width="0.1" stroke="black" /><line x1="47.5" y1="21.625935162094763" x2="49.41034482758621" y2="21.24089068825911" stroke-width="0.1" stroke="black" /><line x1="7.5" y1="21.660574412532636" x2="9.395061728395062" y2="22.70909090909091" stroke-width="0.1" stroke="black" /><line x1="307.19749216300943" y1="27.5" x2="307.1363636363636" y2="18.74736842105263" stroke-width="0.1" stroke="black" /><line x1="30.95390070921986" y1="21.04609929078014" x2="35.359550561797754" y2="22.714285714285715" stroke-width="0.1" stroke="black" /><line x1="296.8440860215054" y1="20.844086021505376" x2="296.75219298245617" y2="22.28391959798995" stroke-width="0.1" stroke="black" /><line x1="79.38757396449704" y1="21.5" x2="79.64887640449439" y2="22.339673913043477" stroke-width="0.1" stroke="black" /><line x1="19.04609929078014" y1="23.05078125" x2="21.5" y2="21.643589743589743" stroke-width="0.1" stroke="black" /><line x1="97.38757396449704" y1="21.5" x2="97.64887640449439" y2="22.339673913043477" stroke-width="0.1" stroke="black" /><line x1="44.63687150837989" y1="23.5" x2="47.5" y2="21.625935162094763" stroke-width="0.1" stroke="black" /><line x1="262.38757396449705" y1="21.5" x2="262.6488764044944" y2="22.339673913043477" stroke-width="0.1" stroke="black" /><line x1="79.64887640449439" y1="22.339673913043477" x2="83.20604395604396" y2="22.8125" stroke-width="0.1" stroke="black" /><line x1="319.85164835164835" y1="20.75229357798165" x2="319.4005037783375" y2="24.5" stroke-width="0.1" stroke="black" /><line x1="97.64887640449439" y1="22.339673913043477" x2="101.20604395604396" y2="22.8125" stroke-width="0.1" stroke="black" /><line x1="262.6488764044944" y1="22.339673913043477" x2="266.20604395604397" y2="22.8125" stroke-width="0.1" stroke="black" /><line x1="83.20604395604396" y1="22.8125" x2="84.14971751412429" y2="23.834375" stroke-width="0.1" stroke="black" /><line x1="9.395061728395062" y1="22.70909090909091" x2="10.513513513513514" y2="24.5" stroke-width="0.1" stroke="black" /><line x1="101.20604395604396" y1="22.8125" x2="102.14971751412429" y2="23.834375" stroke-width="0.1" stroke="black" /><line x1="35.359550561797754" y1="22.714285714285715" x2="36.44230769230769" y2="24.5" stroke-width="0.1" stroke="black" /><line x1="327.2470588235294" y1="25.5" x2="327.0704697986577" y2="21.854166666666668" stroke-width="0.1" stroke="black" /><line x1="266.20604395604397" y1="22.8125" x2="267.1497175141243" y2="23.834375" stroke-width="0.1" stroke="black" /><line x1="296.75219298245617" y1="22.28391959798995" x2="299.9507042253521" y2="23.049295774647888" stroke-width="0.1" stroke="black" /><line x1="18.44646924829157" y1="24.5" x2="19.04609929078014" y2="23.05078125" stroke-width="0.1" stroke="black" /><line x1="44.23353293413174" y1="26.5" x2="44.63687150837989" y2="23.5" stroke-width="0.1" stroke="black" /><line x1="299.9507042253521" y1="23.049295774647888" x2="300.6183574879227" y2="24.5" stroke-width="0.1" stroke="black" /><line x1="319.4005037783375" y1="24.5" x2="319.9155844155844" y2="31.224137931034484" stroke-width="0.1" stroke="black" /><line x1="306.8262295081967" y1="29.5" x2="307.19749216300943" y2="27.5" stroke-width="0.1" stroke="black" /><line x1="68.5" y1="32.668407310704964" x2="61.5" y2="32.71508379888268" stroke-width="0.1" stroke="black" /><line x1="134.5" y1="32.690026954177895" x2="126.5" y2="32.680851063829785" stroke-width="0.1" stroke="black" /><line x1="175.29496402877697" y1="32.804761904761904" x2="163.82303370786516" y2="32.83507853403141" stroke-width="0.1" stroke="black" /><line x1="300.6183574879227" y1="24.5" x2="300.63366336633663" y2="32.5" stroke-width="0.1" stroke="black" /><line x1="192.25471698113208" y1="32.80622009569378" x2="178.93537414965985" y2="32.935374149659864" stroke-width="0.1" stroke="black" /><line x1="207.1235294117647" y1="32.87647058823529" x2="198.84782608695653" y2="32.84782608695652" stroke-width="0.1" stroke="black" /><line x1="61.5" y1="32.71508379888268" x2="58.82122905027933" y2="33.833333333333336" stroke-width="0.1" stroke="black" /><line x1="228.5" y1="32.690026954177895" x2="220.5" y2="32.680851063829785" stroke-width="0.1" stroke="black" /><line x1="71.1300578034682" y1="33.869942196531795" x2="68.5" y2="32.668407310704964" stroke-width="0.1" stroke="black" /><line x1="137.1875" y1="33.840425531914896" x2="134.5" y2="32.690026954177895" stroke-width="0.1" stroke="black" /><line x1="251.1952380952381" y1="32.804761904761904" x2="249.5" y2="32.560175054704594" stroke-width="0.1" stroke="black" /><line x1="175.72982456140352" y1="33.5" x2="175.29496402877697" y2="32.804761904761904" stroke-width="0.1" stroke="black" /><line x1="260.5" y1="32.6448362720403" x2="256.5" y2="32.57918552036199" stroke-width="0.1" stroke="black" /><line x1="126.5" y1="32.680851063829785" x2="121.83684210526316" y2="34.83684210526316" stroke-width="0.1" stroke="black" /><line x1="192.67868852459017" y1="33.5" x2="192.25471698113208" y2="32.80622009569378" stroke-width="0.1" stroke="black" /><line x1="294.5" y1="32.25730994152047" x2="290.5" y2="32.735632183908045" stroke-width="0.1" stroke="black" /><line x1="163.82303370786516" y1="32.83507853403141" x2="163.75219298245614" y2="34.2344398340249" stroke-width="0.1" stroke="black" /><line x1="298.40384615384613" y1="32.801886792452834" x2="294.5" y2="32.25730994152047" stroke-width="0.1" stroke="black" /><line x1="231.1875" y1="33.840425531914896" x2="228.5" y2="32.690026954177895" stroke-width="0.1" stroke="black" /><line x1="178.93537414965985" y1="32.935374149659864" x2="178.8152709359606" y2="34.18472906403941" stroke-width="0.1" stroke="black" /><line x1="262.07615894039736" y1="33.92384105960265" x2="260.5" y2="32.6448362720403" stroke-width="0.1" stroke="black" /><line x1="198.84782608695653" y1="32.84782608695652" x2="198.7601809954751" y2="34.22649572649573" stroke-width="0.1" stroke="black" /><line x1="207.20909090909092" y1="34.22222222222222" x2="207.1235294117647" y2="32.87647058823529" stroke-width="0.1" stroke="black" /><line x1="299.5" y1="33.42651296829971" x2="298.40384615384613" y2="32.801886792452834" stroke-width="0.1" stroke="black" /><line x1="220.5" y1="32.680851063829785" x2="215.83684210526314" y2="34.83684210526316" stroke-width="0.1" stroke="black" /><line x1="300.63366336633663" y1="32.5" x2="300.3168316831683" y2="33.32" stroke-width="0.1" stroke="black" /><line x1="290.5" y1="32.735632183908045" x2="286.8298969072165" y2="34.829896907216494" stroke-width="0.1" stroke="black" /><line x1="175.43150684931507" y1="34.261410788381745" x2="175.72982456140352" y2="33.5" stroke-width="0.1" stroke="black" /><line x1="300.3168316831683" y1="33.32" x2="299.5" y2="33.42651296829971" stroke-width="0.1" stroke="black" /><line x1="18.23123123123123" y1="37.5" x2="18.44646924829157" y2="24.5" stroke-width="0.1" stroke="black" /><line x1="192.43150684931507" y1="34.261410788381745" x2="192.67868852459017" y2="33.5" stroke-width="0.1" stroke="black" /><line x1="36.44230769230769" y1="24.5" x2="36.64" y2="37.5" stroke-width="0.1" stroke="black" /><line x1="249.5" y1="32.560175054704594" x2="240.8265306122449" y2="35.826530612244895" stroke-width="0.1" stroke="black" /><line x1="140.17179487179487" y1="35.82820512820513" x2="137.1875" y2="33.840425531914896" stroke-width="0.1" stroke="black" /><line x1="198.7601809954751" y1="34.22649572649573" x2="200.1771653543307" y2="34.86918604651163" stroke-width="0.1" stroke="black" /><line x1="234.17179487179487" y1="35.82820512820513" x2="231.1875" y2="33.840425531914896" stroke-width="0.1" stroke="black" /><line x1="173.5239852398524" y1="35.5" x2="175.43150684931507" y2="34.261410788381745" stroke-width="0.1" stroke="black" /><line x1="58.82122905027933" y1="33.833333333333336" x2="56.00787401574803" y2="36.007936507936506" stroke-width="0.1" stroke="black" /><line x1="251.84126984126985" y1="36.12820512820513" x2="251.1952380952381" y2="32.804761904761904" stroke-width="0.1" stroke="black" /><line x1="178.8152709359606" y1="34.18472906403941" x2="181.35164835164835" y2="35.666666666666664" stroke-width="0.1" stroke="black" /><line x1="256.5" y1="32.57918552036199" x2="251.84126984126985" y2="36.12820512820513" stroke-width="0.1" stroke="black" /><line x1="262.5281690140845" y1="35.5" x2="262.07615894039736" y2="33.92384105960265" stroke-width="0.1" stroke="black" /><line x1="73.91390728476821" y1="36.08965517241379" x2="71.1300578034682" y2="33.869942196531795" stroke-width="0.1" stroke="black" /><line x1="189.64444444444445" y1="35.66137566137566" x2="192.43150684931507" y2="34.261410788381745" stroke-width="0.1" stroke="black" /><line x1="62.5" y1="35.6256157635468" x2="64.5" y2="35.63341645885287" stroke-width="0.1" stroke="black" /><line x1="205.805" y1="35.76219512195122" x2="207.20909090909092" y2="34.22222222222222" stroke-width="0.1" stroke="black" /><line x1="127.5" y1="35.59487179487179" x2="131.5" y2="35.592875318066156" stroke-width="0.1" stroke="black" /><line x1="163.75219298245614" y1="34.2344398340249" x2="166.1265060240964" y2="36.82644628099174" stroke-width="0.1" stroke="black" /><line x1="59.88607594936709" y1="36.888888888888886" x2="62.5" y2="35.6256157635468" stroke-width="0.1" stroke="black" /><line x1="221.5" y1="35.59487179487179" x2="225.5" y2="35.592875318066156" stroke-width="0.1" stroke="black" /><line x1="200.1771653543307" y1="34.86918604651163" x2="201.27113702623907" y2="36.5" stroke-width="0.1" stroke="black" /><line x1="121.83684210526316" y1="34.83684210526316" x2="118.80188679245283" y2="37.78894472361809" stroke-width="0.1" stroke="black" /><line x1="319.9155844155844" y1="31.224137931034484" x2="321.20382165605093" y2="39.5" stroke-width="0.1" stroke="black" /><line x1="173.23123123123122" y1="36.5" x2="173.5239852398524" y2="35.5" stroke-width="0.1" stroke="black" /><line x1="181.35164835164835" y1="35.666666666666664" x2="182.23041474654377" y2="36.675324675324674" stroke-width="0.1" stroke="black" /><line x1="291.7093023255814" y1="35.775784753363226" x2="294.5" y2="35.07581227436823" stroke-width="0.1" stroke="black" /><line x1="64.5" y1="35.63341645885287" x2="66.9812030075188" y2="37.0187969924812" stroke-width="0.1" stroke="black" /><line x1="189.3099730458221" y1="36.5" x2="189.64444444444445" y2="35.66137566137566" stroke-width="0.1" stroke="black" /><line x1="294.5" y1="35.07581227436823" x2="297.4102564102564" y2="35.73109243697479" stroke-width="0.1" stroke="black" /><line x1="215.83684210526314" y1="34.83684210526316" x2="212.80188679245282" y2="37.78894472361809" stroke-width="0.1" stroke="black" /><line x1="124.73981900452489" y1="37.700520833333336" x2="127.5" y2="35.59487179487179" stroke-width="0.1" stroke="black" /><line x1="131.5" y1="35.592875318066156" x2="133.85955056179776" y2="37.140449438202246" stroke-width="0.1" stroke="black" /><line x1="142.1734693877551" y1="37.826530612244895" x2="140.17179487179487" y2="35.82820512820513" stroke-width="0.1" stroke="black" /><line x1="286.8298969072165" y1="34.829896907216494" x2="283.8832335329341" y2="37.883233532934135" stroke-width="0.1" stroke="black" /><line x1="297.4102564102564" y1="35.73109243697479" x2="299.12951807228916" y2="36.87125748502994" stroke-width="0.1" stroke="black" /><line x1="218.7398190045249" y1="37.700520833333336" x2="221.5" y2="35.59487179487179" stroke-width="0.1" stroke="black" /><line x1="225.5" y1="35.592875318066156" x2="227.85955056179776" y2="37.140449438202246" stroke-width="0.1" stroke="black" /><line x1="236.1734693877551" y1="37.826530612244895" x2="234.17179487179487" y2="35.82820512820513" stroke-width="0.1" stroke="black" /><line x1="75.1734693877551" y1="37.77922077922078" x2="73.91390728476821" y2="36.08965517241379" stroke-width="0.1" stroke="black" /><line x1="240.8265306122449" y1="35.826530612244895" x2="240.75219298245614" y2="37.28391959798995" stroke-width="0.1" stroke="black" /><line x1="90.63756613756614" y1="57.5" x2="90.4538043478261" y2="18.5" stroke-width="0.1" stroke="black" /><line x1="108.63756613756614" y1="57.5" x2="108.4538043478261" y2="18.5" stroke-width="0.1" stroke="black" /><line x1="273.6375661375661" y1="57.5" x2="273.45380434782606" y2="18.5" stroke-width="0.1" stroke="black" /><line x1="56.00787401574803" y1="36.007936507936506" x2="53.809178743961354" y2="38.743506493506494" stroke-width="0.1" stroke="black" /><line x1="262.1559139784946" y1="38.155913978494624" x2="262.5281690140845" y2="35.5" stroke-width="0.1" stroke="black" /><line x1="288.86337209302326" y1="38.83793103448276" x2="291.7093023255814" y2="35.775784753363226" stroke-width="0.1" stroke="black" /><line x1="18.607361963190183" y1="38.33862433862434" x2="18.23123123123123" y2="37.5" stroke-width="0.1" stroke="black" /><line x1="173.51184834123222" y1="38.5" x2="173.23123123123122" y2="36.5" stroke-width="0.1" stroke="black" /><line x1="189.58505154639175" y1="38.5" x2="189.3099730458221" y2="36.5" stroke-width="0.1" stroke="black" /><line x1="36.64" y1="37.5" x2="36.323232323232325" y2="38.344086021505376" stroke-width="0.1" stroke="black" /><line x1="324.06756756756755" y1="51.067567567567565" x2="327.2470588235294" y2="25.5" stroke-width="0.1" stroke="black" /><line x1="66.9812030075188" y1="37.0187969924812" x2="68.23364485981308" y2="38.6551724137931" stroke-width="0.1" stroke="black" /><line x1="240.75219298245614" y1="37.28391959798995" x2="243.3975155279503" y2="37.733333333333334" stroke-width="0.1" stroke="black" /><line x1="57.55911330049261" y1="40.5" x2="59.88607594936709" y2="36.888888888888886" stroke-width="0.1" stroke="black" /><line x1="201.27113702623907" y1="36.5" x2="200.46055979643765" y2="39.5" stroke-width="0.1" stroke="black" /><line x1="133.85955056179776" y1="37.140449438202246" x2="135.23041474654377" y2="38.71264367816092" stroke-width="0.1" stroke="black" /><line x1="254.58441558441558" y1="37.7429718875502" x2="255.47761194029852" y2="37.7429718875502" stroke-width="0.1" stroke="black" /><line x1="299.12951807228916" y1="36.87125748502994" x2="300.5354691075515" y2="39.5" stroke-width="0.1" stroke="black" /><line x1="19.5" y1="38.675461741424805" x2="18.607361963190183" y2="38.33862433862434" stroke-width="0.1" stroke="black" /><line x1="182.23041474654377" y1="36.675324675324674" x2="184.18300653594773" y2="41.5" stroke-width="0.1" stroke="black" /><line x1="227.85955056179776" y1="37.140449438202246" x2="229.23041474654377" y2="38.71264367816092" stroke-width="0.1" stroke="black" /><line x1="35.5" y1="38.680851063829785" x2="19.5" y2="38.675461741424805" stroke-width="0.1" stroke="black" /><line x1="44.23353293413174" y1="55.5" x2="44.23353293413174" y2="26.5" stroke-width="0.1" stroke="black" /><line x1="36.323232323232325" y1="38.344086021505376" x2="35.5" y2="38.680851063829785" stroke-width="0.1" stroke="black" /><line x1="76.3502538071066" y1="40.5" x2="75.1734693877551" y2="37.77922077922078" stroke-width="0.1" stroke="black" /><line x1="243.3975155279503" y1="37.733333333333334" x2="244.29090909090908" y2="38.60248447204969" stroke-width="0.1" stroke="black" /><line x1="118.80188679245283" y1="37.78894472361809" x2="116.65675675675676" y2="41.5" stroke-width="0.1" stroke="black" /><line x1="253.0151515151515" y1="39.015151515151516" x2="254.58441558441558" y2="37.7429718875502" stroke-width="0.1" stroke="black" /><line x1="144.1952380952381" y1="41.55434782608695" x2="142.1734693877551" y2="37.826530612244895" stroke-width="0.1" stroke="black" /><line x1="255.47761194029852" y1="37.7429718875502" x2="258.5" y2="39.46218487394958" stroke-width="0.1" stroke="black" /><line x1="10.513513513513514" y1="24.5" x2="10.495391705069125" y2="57.5" stroke-width="0.1" stroke="black" /><line x1="307.0223880597015" y1="55.89655172413793" x2="306.8262295081967" y2="29.5" stroke-width="0.1" stroke="black" /><line x1="212.80188679245282" y1="37.78894472361809" x2="210.65675675675675" y2="41.5" stroke-width="0.1" stroke="black" /><line x1="238.1952380952381" y1="41.55434782608695" x2="236.1734693877551" y2="37.826530612244895" stroke-width="0.1" stroke="black" /><line x1="122.80448717948718" y1="42.5" x2="124.73981900452489" y2="37.700520833333336" stroke-width="0.1" stroke="black" /><line x1="84.14971751412429" y1="23.834375" x2="84.14971751412429" y2="58.294444444444444" stroke-width="0.1" stroke="black" /><line x1="68.23364485981308" y1="38.6551724137931" x2="68.66666666666667" y2="41.5" stroke-width="0.1" stroke="black" /><line x1="261.1701030927835" y1="39.170103092783506" x2="262.1559139784946" y2="38.155913978494624" stroke-width="0.1" stroke="black" /><line x1="283.8832335329341" y1="37.883233532934135" x2="281.83862433862436" y2="41.73245614035088" stroke-width="0.1" stroke="black" /><line x1="102.14971751412429" y1="23.834375" x2="102.14971751412429" y2="58.294444444444444" stroke-width="0.1" stroke="black" /><line x1="216.80448717948718" y1="42.5" x2="218.7398190045249" y2="37.700520833333336" stroke-width="0.1" stroke="black" /><line x1="258.5" y1="39.46218487394958" x2="261.1701030927835" y2="39.170103092783506" stroke-width="0.1" stroke="black" /><line x1="244.29090909090908" y1="38.60248447204969" x2="244.86779661016948" y2="41.5" stroke-width="0.1" stroke="black" /><line x1="267.1497175141243" y1="23.834375" x2="267.1497175141243" y2="58.294444444444444" stroke-width="0.1" stroke="black" /><line x1="251.4904761904762" y1="41.5" x2="253.0151515151515" y2="39.015151515151516" stroke-width="0.1" stroke="black" /><line x1="53.809178743961354" y1="38.743506493506494" x2="51.71910112359551" y2="43.5" stroke-width="0.1" stroke="black" /><line x1="135.23041474654377" y1="38.71264367816092" x2="137.3815789473684" y2="43.5" stroke-width="0.1" stroke="black" /><line x1="287.4855769230769" y1="42.5" x2="288.86337209302326" y2="38.83793103448276" stroke-width="0.1" stroke="black" /><line x1="57.83064516129032" y1="42.124260355029584" x2="57.55911330049261" y2="40.5" stroke-width="0.1" stroke="black" /><line x1="229.23041474654377" y1="38.71264367816092" x2="231.3815789473684" y2="43.5" stroke-width="0.1" stroke="black" /><line x1="68.66666666666667" y1="41.5" x2="68.1830985915493" y2="42.08496732026144" stroke-width="0.1" stroke="black" /><line x1="184.18300653594773" y1="41.5" x2="184.1497175141243" y2="42.363013698630134" stroke-width="0.1" stroke="black" /><line x1="18.612121212121213" y1="42.73770491803279" x2="35.5" y2="42.47540983606557" stroke-width="0.1" stroke="black" /><line x1="76.57487922705315" y1="43.5" x2="76.3502538071066" y2="40.5" stroke-width="0.1" stroke="black" /><line x1="35.5" y1="42.47540983606557" x2="36.31683168316832" y2="42.73770491803279" stroke-width="0.1" stroke="black" /><line x1="116.65675675675676" y1="41.5" x2="115.7551622418879" y2="44.5" stroke-width="0.1" stroke="black" /><line x1="68.1830985915493" y1="42.08496732026144" x2="57.83064516129032" y2="42.124260355029584" stroke-width="0.1" stroke="black" /><line x1="18.235820895522387" y1="43.5" x2="18.612121212121213" y2="42.73770491803279" stroke-width="0.1" stroke="black" /><line x1="210.65675675675675" y1="41.5" x2="209.75516224188792" y2="44.5" stroke-width="0.1" stroke="black" /><line x1="36.31683168316832" y1="42.73770491803279" x2="36.633663366336634" y2="43.5" stroke-width="0.1" stroke="black" /><line x1="145.25797101449277" y1="46.5" x2="144.1952380952381" y2="41.55434782608695" stroke-width="0.1" stroke="black" /><line x1="281.83862433862436" y1="41.73245614035088" x2="280.7191011235955" y2="45.5" stroke-width="0.1" stroke="black" /><line x1="239.25797101449277" y1="46.5" x2="238.1952380952381" y2="41.55434782608695" stroke-width="0.1" stroke="black" /><line x1="321.20382165605093" y1="39.5" x2="321.9155844155844" y2="48.351351351351354" stroke-width="0.1" stroke="black" /><line x1="178.83068783068782" y1="52.25" x2="173.51184834123222" y2="38.5" stroke-width="0.1" stroke="black" /><line x1="287.23353293413174" y1="45.5" x2="287.4855769230769" y2="42.5" stroke-width="0.1" stroke="black" /><line x1="194.89556962025316" y1="52.113013698630134" x2="189.58505154639175" y2="38.5" stroke-width="0.1" stroke="black" /><line x1="76.06756756756756" y1="45.067567567567565" x2="76.57487922705315" y2="43.5" stroke-width="0.1" stroke="black" /><line x1="122.595" y1="48.5" x2="122.80448717948718" y2="42.5" stroke-width="0.1" stroke="black" /><line x1="200.46055979643765" y1="39.5" x2="194.89556962025316" y2="52.113013698630134" stroke-width="0.1" stroke="black" /><line x1="57.607361963190186" y1="45.59748427672956" x2="58.5" y2="45.2" stroke-width="0.1" stroke="black" /><line x1="58.5" y1="45.2" x2="76.06756756756756" y2="45.067567567567565" stroke-width="0.1" stroke="black" /><line x1="216.595" y1="48.5" x2="216.80448717948718" y2="42.5" stroke-width="0.1" stroke="black" /><line x1="51.71910112359551" y1="43.5" x2="51.25748502994012" y2="48.5" stroke-width="0.1" stroke="black" /><line x1="57.217125382263" y1="46.5" x2="57.607361963190186" y2="45.59748427672956" stroke-width="0.1" stroke="black" /><line x1="137.3815789473684" y1="43.5" x2="138.29943502824858" y2="48.5" stroke-width="0.1" stroke="black" /><line x1="231.3815789473684" y1="43.5" x2="232.29943502824858" y2="48.5" stroke-width="0.1" stroke="black" /><line x1="184.1497175141243" y1="42.363013698630134" x2="180.1497175141243" y2="51.22649572649573" stroke-width="0.1" stroke="black" /><line x1="185.74330357142858" y1="47.53629032258065" x2="186.3639240506329" y2="47.53629032258065" stroke-width="0.1" stroke="black" /><line x1="115.7551622418879" y1="44.5" x2="115.67368421052632" y2="50.5" stroke-width="0.1" stroke="black" /><line x1="209.75516224188792" y1="44.5" x2="209.67368421052632" y2="50.5" stroke-width="0.1" stroke="black" /><line x1="300.5354691075515" y1="39.5" x2="300.60520094562645" y2="55.5" stroke-width="0.1" stroke="black" /><line x1="57.49528301886792" y1="49.5" x2="57.217125382263" y2="46.5" stroke-width="0.1" stroke="black" /><line x1="186.3639240506329" y1="47.53629032258065" x2="187.1796875" y2="48.691964285714285" stroke-width="0.1" stroke="black" /><line x1="145.21472392638037" y1="49.5" x2="145.25797101449277" y2="46.5" stroke-width="0.1" stroke="black" /><line x1="287.4855769230769" y1="50.5" x2="287.23353293413174" y2="45.5" stroke-width="0.1" stroke="black" /><line x1="239.21472392638037" y1="49.5" x2="239.25797101449277" y2="46.5" stroke-width="0.1" stroke="black" /><line x1="18.233532934131738" y1="54.5" x2="18.235820895522387" y2="43.5" stroke-width="0.1" stroke="black" /><line x1="138.29943502824858" y1="48.5" x2="138.29943502824858" y2="51.5" stroke-width="0.1" stroke="black" /><line x1="280.7191011235955" y1="45.5" x2="280.7377521613833" y2="52.5" stroke-width="0.1" stroke="black" /><line x1="51.25748502994012" y1="48.5" x2="51.62439024390244" y2="52.5" stroke-width="0.1" stroke="black" /><line x1="232.29943502824858" y1="48.5" x2="232.29943502824858" y2="51.5" stroke-width="0.1" stroke="black" /><line x1="321.9155844155844" y1="48.351351351351354" x2="322.6656626506024" y2="51.23221757322176" stroke-width="0.1" stroke="black" /><line x1="77.37662337662337" y1="51.76229508196721" x2="75.79493087557604" y2="51.794930875576036" stroke-width="0.1" stroke="black" /><line x1="58.60215053763441" y1="52.5" x2="57.49528301886792" y2="49.5" stroke-width="0.1" stroke="black" /><line x1="251.4247191011236" y1="57.5" x2="251.4904761904762" y2="41.5" stroke-width="0.1" stroke="black" /><line x1="36.633663366336634" y1="43.5" x2="36.44230769230769" y2="57.5" stroke-width="0.1" stroke="black" /><line x1="144.33333333333334" y1="53.5" x2="145.21472392638037" y2="49.5" stroke-width="0.1" stroke="black" /><line x1="77.77316293929712" y1="52.5" x2="77.37662337662337" y2="51.76229508196721" stroke-width="0.1" stroke="black" /><line x1="238.33333333333334" y1="53.5" x2="239.21472392638037" y2="49.5" stroke-width="0.1" stroke="black" /><line x1="322.6656626506024" y1="51.23221757322176" x2="324.06756756756755" y2="51.067567567567565" stroke-width="0.1" stroke="black" /><line x1="124.59452054794521" y1="55.5" x2="122.595" y2="48.5" stroke-width="0.1" stroke="black" /><line x1="180.1497175141243" y1="51.22649572649573" x2="179.25" y2="52.25" stroke-width="0.1" stroke="black" /><line x1="115.67368421052632" y1="50.5" x2="116.80188679245283" y2="54.40384615384615" stroke-width="0.1" stroke="black" /><line x1="218.5945205479452" y1="55.5" x2="216.595" y2="48.5" stroke-width="0.1" stroke="black" /><line x1="209.67368421052632" y1="50.5" x2="210.80188679245282" y2="54.40384615384615" stroke-width="0.1" stroke="black" /><line x1="244.86779661016948" y1="41.5" x2="244.73352435530086" y2="58.5" stroke-width="0.1" stroke="black" /><line x1="288.8255208333333" y1="54.239285714285714" x2="287.4855769230769" y2="50.5" stroke-width="0.1" stroke="black" /><line x1="179.25" y1="52.25" x2="178.83068783068782" y2="52.25" stroke-width="0.1" stroke="black" /><line x1="75.79493087557604" y1="51.794930875576036" x2="73.18848167539267" y2="55.18848167539267" stroke-width="0.1" stroke="black" /><line x1="59.721739130434784" y1="54.30622009569378" x2="58.60215053763441" y2="52.5" stroke-width="0.1" stroke="black" /><line x1="138.29943502824858" y1="51.5" x2="137.4769975786925" y2="55.5" stroke-width="0.1" stroke="black" /><line x1="76.9922480620155" y1="54.989583333333336" x2="77.77316293929712" y2="52.5" stroke-width="0.1" stroke="black" /><line x1="232.29943502824858" y1="51.5" x2="231.4769975786925" y2="55.5" stroke-width="0.1" stroke="black" /><line x1="195.07615894039736" y1="62.09349593495935" x2="205.805" y2="35.76219512195122" stroke-width="0.1" stroke="black" /><line x1="280.7377521613833" y1="52.5" x2="281.7032967032967" y2="55.5" stroke-width="0.1" stroke="black" /><line x1="143.1342857142857" y1="56.17153284671533" x2="144.33333333333334" y2="53.5" stroke-width="0.1" stroke="black" /><line x1="237.1342857142857" y1="56.17153284671533" x2="238.33333333333334" y2="53.5" stroke-width="0.1" stroke="black" /><line x1="61.73684210526316" y1="56.23041474654378" x2="59.721739130434784" y2="54.30622009569378" stroke-width="0.1" stroke="black" /><line x1="166.1265060240964" y1="36.82644628099174" x2="176.90251572327045" y2="63.09748427672956" stroke-width="0.1" stroke="black" /><line x1="51.62439024390244" y1="52.5" x2="53.88787878787879" y2="58.11212121212121" stroke-width="0.1" stroke="black" /><line x1="324.5" y1="55.6448362720403" x2="321.7095588235294" y2="55.809178743961354" stroke-width="0.1" stroke="black" /><line x1="73.18848167539267" y1="55.18848167539267" x2="70.33430232558139" y2="57.239583333333336" stroke-width="0.1" stroke="black" /><line x1="300.60520094562645" y1="55.5" x2="300.289592760181" y2="56.4" stroke-width="0.1" stroke="black" /><line x1="290.9139072847682" y1="57.08552631578947" x2="288.8255208333333" y2="54.239285714285714" stroke-width="0.1" stroke="black" /><line x1="326.2235576923077" y1="56.789592760180994" x2="324.5" y2="55.6448362720403" stroke-width="0.1" stroke="black" /><line x1="64.5" y1="57.59953161592506" x2="61.73684210526316" y2="56.23041474654378" stroke-width="0.1" stroke="black" /><line x1="116.80188679245283" y1="54.40384615384615" x2="118.8699421965318" y2="58.130057803468205" stroke-width="0.1" stroke="black" /><line x1="307.68" y1="57.2962962962963" x2="307.0223880597015" y2="55.89655172413793" stroke-width="0.1" stroke="black" /><line x1="210.80188679245282" y1="54.40384615384615" x2="212.86994219653178" y2="58.130057803468205" stroke-width="0.1" stroke="black" /><line x1="321.7095588235294" y1="55.809178743961354" x2="320.0753424657534" y2="57.09016393442623" stroke-width="0.1" stroke="black" /><line x1="66.5" y1="57.86779661016949" x2="64.5" y2="57.59953161592506" stroke-width="0.1" stroke="black" /><line x1="127.04285714285714" y1="58.957142857142856" x2="124.59452054794521" y2="55.5" stroke-width="0.1" stroke="black" /><line x1="70.33430232558139" y1="57.239583333333336" x2="66.5" y2="57.86779661016949" stroke-width="0.1" stroke="black" /><line x1="137.4769975786925" y1="55.5" x2="136.2186046511628" y2="58.25133689839572" stroke-width="0.1" stroke="black" /><line x1="221.04285714285714" y1="58.957142857142856" x2="218.5945205479452" y2="55.5" stroke-width="0.1" stroke="black" /><line x1="10.495391705069125" y1="57.5" x2="9.932432432432432" y2="58.916666666666664" stroke-width="0.1" stroke="black" /><line x1="18.984615384615385" y1="59.01538461538462" x2="18.233532934131738" y2="54.5" stroke-width="0.1" stroke="black" /><line x1="231.4769975786925" y1="55.5" x2="230.2186046511628" y2="58.25133689839572" stroke-width="0.1" stroke="black" /><line x1="36.44230769230769" y1="57.5" x2="35.9" y2="58.84158415841584" stroke-width="0.1" stroke="black" /><line x1="74.1024844720497" y1="59.10248447204969" x2="76.9922480620155" y2="54.989583333333336" stroke-width="0.1" stroke="black" /><line x1="44.922818791946305" y1="59.077181208053695" x2="44.23353293413174" y2="55.5" stroke-width="0.1" stroke="black" /><line x1="91.02592592592593" y1="58.93518518518518" x2="90.63756613756614" y2="57.5" stroke-width="0.1" stroke="black" /><line x1="109.02592592592593" y1="58.93518518518518" x2="108.63756613756614" y2="57.5" stroke-width="0.1" stroke="black" /><line x1="300.289592760181" y1="56.4" x2="298.367816091954" y2="58.264462809917354" stroke-width="0.1" stroke="black" /><line x1="281.7032967032967" y1="55.5" x2="283.8720930232558" y2="59.127906976744185" stroke-width="0.1" stroke="black" /><line x1="327.2908587257618" y1="58.5" x2="326.2235576923077" y2="56.789592760180994" stroke-width="0.1" stroke="black" /><line x1="141.1024844720497" y1="59.10248447204969" x2="143.1342857142857" y2="56.17153284671533" stroke-width="0.1" stroke="black" /><line x1="274.02592592592595" y1="58.93518518518518" x2="273.6375661375661" y2="57.5" stroke-width="0.1" stroke="black" /><line x1="235.1024844720497" y1="59.10248447204969" x2="237.1342857142857" y2="56.17153284671533" stroke-width="0.1" stroke="black" /><line x1="292.6266233766234" y1="58.24159663865546" x2="290.9139072847682" y2="57.08552631578947" stroke-width="0.1" stroke="black" /><line x1="310.9428571428571" y1="58.019417475728154" x2="307.68" y2="57.2962962962963" stroke-width="0.1" stroke="black" /><line x1="320.0753424657534" y1="57.09016393442623" x2="319.5034013605442" y2="58.5" stroke-width="0.1" stroke="black" /><line x1="251.9344827586207" y1="59.06985294117647" x2="251.4247191011236" y2="57.5" stroke-width="0.1" stroke="black" /><line x1="9.932432432432432" y1="58.916666666666664" x2="7.5" y2="60.37027707808564" stroke-width="0.1" stroke="black" /><line x1="295.5" y1="58.79256965944273" x2="292.6266233766234" y2="58.24159663865546" stroke-width="0.1" stroke="black" /><line x1="298.367816091954" y1="58.264462809917354" x2="295.5" y2="58.79256965944273" stroke-width="0.1" stroke="black" /><line x1="178.1734693877551" y1="63.173469387755105" x2="185.74330357142858" y2="47.53629032258065" stroke-width="0.1" stroke="black" /><line x1="35.9" y1="58.84158415841584" x2="33.5" y2="60.3573264781491" stroke-width="0.1" stroke="black" /><line x1="311.2180616740088" y1="58.519417475728154" x2="310.9428571428571" y2="58.019417475728154" stroke-width="0.1" stroke="black" /><line x1="187.1796875" y1="48.691964285714285" x2="192.9848484848485" y2="63.015151515151516" stroke-width="0.1" stroke="black" /><line x1="84.14971751412429" y1="58.294444444444444" x2="82.41025641025641" y2="60.256" stroke-width="0.1" stroke="black" /><line x1="91.92481203007519" y1="60.06802721088435" x2="91.02592592592593" y2="58.93518518518518" stroke-width="0.1" stroke="black" /><line x1="102.14971751412429" y1="58.294444444444444" x2="100.41025641025641" y2="60.256" stroke-width="0.1" stroke="black" /><line x1="310.9468085106383" y1="59.95412844036697" x2="311.2180616740088" y2="58.519417475728154" stroke-width="0.1" stroke="black" /><line x1="109.92481203007519" y1="60.06802721088435" x2="109.02592592592593" y2="58.93518518518518" stroke-width="0.1" stroke="black" /><line x1="118.8699421965318" y1="58.130057803468205" x2="120.8699421965318" y2="60.130057803468205" stroke-width="0.1" stroke="black" /><line x1="128.68944099378882" y1="60.224215246636774" x2="127.04285714285714" y2="58.957142857142856" stroke-width="0.1" stroke="black" /><line x1="21.5" y1="60.40487804878049" x2="18.984615384615385" y2="59.01538461538462" stroke-width="0.1" stroke="black" /><line x1="253.00387596899225" y1="59.99612403100775" x2="251.9344827586207" y2="59.06985294117647" stroke-width="0.1" stroke="black" /><line x1="136.2186046511628" y1="58.25133689839572" x2="134.23076923076923" y2="60.19117647058823" stroke-width="0.1" stroke="black" /><line x1="212.86994219653178" y1="58.130057803468205" x2="214.86994219653178" y2="60.130057803468205" stroke-width="0.1" stroke="black" /><line x1="47.5" y1="60.40487804878049" x2="44.922818791946305" y2="59.077181208053695" stroke-width="0.1" stroke="black" /><line x1="222.68944099378882" y1="60.224215246636774" x2="221.04285714285714" y2="58.957142857142856" stroke-width="0.1" stroke="black" /><line x1="7.5" y1="60.37027707808564" x2="4.981203007518797" y2="60.9812030075188" stroke-width="0.1" stroke="black" /><line x1="230.2186046511628" y1="58.25133689839572" x2="228.23076923076923" y2="60.19117647058823" stroke-width="0.1" stroke="black" /><line x1="23.374125874125873" y1="60.772340425531915" x2="21.5" y2="60.40487804878049" stroke-width="0.1" stroke="black" /><line x1="244.73352435530086" y1="58.5" x2="243.3037037037037" y2="60.19711538461539" stroke-width="0.1" stroke="black" /><line x1="33.5" y1="60.3573264781491" x2="30.981203007518797" y2="60.9812030075188" stroke-width="0.1" stroke="black" /><line x1="267.1497175141243" y1="58.294444444444444" x2="265.4102564102564" y2="60.256" stroke-width="0.1" stroke="black" /><line x1="274.9248120300752" y1="60.06802721088435" x2="274.02592592592595" y2="58.93518518518518" stroke-width="0.1" stroke="black" /><line x1="49.37412587412587" y1="60.772340425531915" x2="47.5" y2="60.40487804878049" stroke-width="0.1" stroke="black" /><line x1="53.88787878787879" y1="58.11212121212121" x2="57.91025641025641" y2="62.08974358974359" stroke-width="0.1" stroke="black" /><line x1="82.41025641025641" y1="60.256" x2="79.87869822485207" y2="60.87869822485207" stroke-width="0.1" stroke="black" /><line x1="319.5034013605442" y1="58.5" x2="319.451690821256" y2="60.5" stroke-width="0.1" stroke="black" /><line x1="95.07333333333334" y1="60.92666666666667" x2="91.92481203007519" y2="60.06802721088435" stroke-width="0.1" stroke="black" /><line x1="327.3099730458221" y1="60.5" x2="327.2908587257618" y2="58.5" stroke-width="0.1" stroke="black" /><line x1="256.16954022988506" y1="60.842245989304814" x2="253.00387596899225" y2="59.99612403100775" stroke-width="0.1" stroke="black" /><line x1="100.41025641025641" y1="60.256" x2="97.87869822485207" y2="60.87869822485207" stroke-width="0.1" stroke="black" /><line x1="113.07333333333334" y1="60.92666666666667" x2="109.92481203007519" y2="60.06802721088435" stroke-width="0.1" stroke="black" /><line x1="139.03956834532374" y1="61.039568345323744" x2="141.1024844720497" y2="59.10248447204969" stroke-width="0.1" stroke="black" /><line x1="233.03956834532374" y1="61.039568345323744" x2="235.1024844720497" y2="59.10248447204969" stroke-width="0.1" stroke="black" /><line x1="131.5" y1="60.73988439306358" x2="128.68944099378882" y2="60.224215246636774" stroke-width="0.1" stroke="black" /><line x1="283.8720930232558" y1="59.127906976744185" x2="285.8832335329341" y2="61.116766467065865" stroke-width="0.1" stroke="black" /><line x1="23.779264214046822" y1="61.5" x2="23.374125874125873" y2="60.772340425531915" stroke-width="0.1" stroke="black" /><line x1="134.23076923076923" y1="60.19117647058823" x2="131.5" y2="60.73988439306358" stroke-width="0.1" stroke="black" /><line x1="70.13841807909604" y1="62.13841807909605" x2="74.1024844720497" y2="59.10248447204969" stroke-width="0.1" stroke="black" /><line x1="4.981203007518797" y1="60.9812030075188" x2="4.957142857142857" y2="62.042857142857144" stroke-width="0.1" stroke="black" /><line x1="49.77076411960133" y1="61.5" x2="49.37412587412587" y2="60.772340425531915" stroke-width="0.1" stroke="black" /><line x1="225.5" y1="60.73988439306358" x2="222.68944099378882" y2="60.224215246636774" stroke-width="0.1" stroke="black" /><line x1="228.23076923076923" y1="60.19117647058823" x2="225.5" y2="60.73988439306358" stroke-width="0.1" stroke="black" /><line x1="30.981203007518797" y1="60.9812030075188" x2="30.95390070921986" y2="62.04609929078014" stroke-width="0.1" stroke="black" /><line x1="243.3037037037037" y1="60.19711538461539" x2="240.7314814814815" y2="60.79767441860465" stroke-width="0.1" stroke="black" /><line x1="265.4102564102564" y1="60.256" x2="262.8786982248521" y2="60.87869822485207" stroke-width="0.1" stroke="black" /><line x1="79.87869822485207" y1="60.87869822485207" x2="79.75219298245614" y2="62.2344398340249" stroke-width="0.1" stroke="black" /><line x1="278.0733333333333" y1="60.92666666666667" x2="274.9248120300752" y2="60.06802721088435" stroke-width="0.1" stroke="black" /><line x1="95.20776255707763" y1="62.20776255707762" x2="95.07333333333334" y2="60.92666666666667" stroke-width="0.1" stroke="black" /><line x1="240.7314814814815" y1="60.79767441860465" x2="240.38235294117646" y2="61.5" stroke-width="0.1" stroke="black" /><line x1="97.87869822485207" y1="60.87869822485207" x2="97.75219298245614" y2="62.2344398340249" stroke-width="0.1" stroke="black" /><line x1="113.20776255707763" y1="62.20776255707762" x2="113.07333333333334" y2="60.92666666666667" stroke-width="0.1" stroke="black" /><line x1="120.8699421965318" y1="60.130057803468205" x2="123.82122905027933" y2="62.166666666666664" stroke-width="0.1" stroke="black" /><line x1="319.451690821256" y1="60.5" x2="320.0407407407407" y2="61.952586206896555" stroke-width="0.1" stroke="black" /><line x1="302.33009708737865" y1="63.173469387755105" x2="310.9468085106383" y2="59.95412844036697" stroke-width="0.1" stroke="black" /><line x1="214.86994219653178" y1="60.130057803468205" x2="217.82122905027933" y2="62.166666666666664" stroke-width="0.1" stroke="black" /><line x1="23.403846153846153" y1="62.24803149606299" x2="23.779264214046822" y2="61.5" stroke-width="0.1" stroke="black" /><line x1="49.39556962025316" y1="62.24703557312253" x2="49.77076411960133" y2="61.5" stroke-width="0.1" stroke="black" /><line x1="4.957142857142857" y1="62.042857142857144" x2="5.5" y2="62.35189873417721" stroke-width="0.1" stroke="black" /><line x1="256.29024390243904" y1="62.24089068825911" x2="256.16954022988506" y2="60.842245989304814" stroke-width="0.1" stroke="black" /><line x1="5.5" y1="62.35189873417721" x2="23.403846153846153" y2="62.24803149606299" stroke-width="0.1" stroke="black" /><line x1="262.8786982248521" y1="60.87869822485207" x2="262.75219298245617" y2="62.2344398340249" stroke-width="0.1" stroke="black" /><line x1="30.95390070921986" y1="62.04609929078014" x2="31.5" y2="62.35353535353536" stroke-width="0.1" stroke="black" /><line x1="31.5" y1="62.35353535353536" x2="49.39556962025316" y2="62.24703557312253" stroke-width="0.1" stroke="black" /><line x1="278.2077625570776" y1="62.20776255707762" x2="278.0733333333333" y2="60.92666666666667" stroke-width="0.1" stroke="black" /><line x1="298.16954022988506" y1="62.157754010695186" x2="300.25531914893617" y2="60.8125" stroke-width="0.1" stroke="black" /><line x1="240.38235294117646" y1="61.5" x2="240.65449438202248" y2="62.245019920318725" stroke-width="0.1" stroke="black" /><line x1="326.2248803827751" y1="62.211711711711715" x2="327.3099730458221" y2="60.5" stroke-width="0.1" stroke="black" /><line x1="79.75219298245614" y1="62.2344398340249" x2="94.5" y2="62.459915611814345" stroke-width="0.1" stroke="black" /><line x1="94.5" y1="62.459915611814345" x2="95.20776255707763" y2="62.20776255707762" stroke-width="0.1" stroke="black" /><line x1="134.5" y1="63.30810810810811" x2="139.03956834532374" y2="61.039568345323744" stroke-width="0.1" stroke="black" /><line x1="97.75219298245614" y1="62.2344398340249" x2="112.5" y2="62.459915611814345" stroke-width="0.1" stroke="black" /><line x1="112.5" y1="62.459915611814345" x2="113.20776255707763" y2="62.20776255707762" stroke-width="0.1" stroke="black" /><line x1="300.25531914893617" y1="60.8125" x2="300.9353741496599" y2="63.064625850340136" stroke-width="0.1" stroke="black" /><line x1="228.5" y1="63.30810810810811" x2="233.03956834532374" y2="61.039568345323744" stroke-width="0.1" stroke="black" /><line x1="57.91025641025641" y1="62.08974358974359" x2="61.5" y2="63.36" stroke-width="0.1" stroke="black" /><line x1="285.8832335329341" y1="61.116766467065865" x2="290.5" y2="63.224242424242426" stroke-width="0.1" stroke="black" /><line x1="67.5" y1="63.25581395348837" x2="70.13841807909604" y2="62.13841807909605" stroke-width="0.1" stroke="black" /><line x1="240.65449438202248" y1="62.245019920318725" x2="256.29024390243904" y2="62.24089068825911" stroke-width="0.1" stroke="black" /><line x1="320.0407407407407" y1="61.952586206896555" x2="321.7175572519084" y2="63.18316831683168" stroke-width="0.1" stroke="black" /><line x1="262.75219298245617" y1="62.2344398340249" x2="277.5" y2="62.459915611814345" stroke-width="0.1" stroke="black" /><line x1="123.82122905027933" y1="62.166666666666664" x2="126.5" y2="63.35353535353536" stroke-width="0.1" stroke="black" /><line x1="277.5" y1="62.459915611814345" x2="278.2077625570776" y2="62.20776255707762" stroke-width="0.1" stroke="black" /><line x1="194.22375690607734" y1="63.19377990430622" x2="195.07615894039736" y2="62.09349593495935" stroke-width="0.1" stroke="black" /><line x1="217.82122905027933" y1="62.166666666666664" x2="220.5" y2="63.35353535353536" stroke-width="0.1" stroke="black" /><line x1="61.5" y1="63.36" x2="67.5" y2="63.25581395348837" stroke-width="0.1" stroke="black" /><line x1="126.5" y1="63.35353535353536" x2="134.5" y2="63.30810810810811" stroke-width="0.1" stroke="black" /><line x1="295.5" y1="63.19496855345912" x2="298.16954022988506" y2="62.157754010695186" stroke-width="0.1" stroke="black" /><line x1="176.90251572327045" y1="63.09748427672956" x2="178.1734693877551" y2="63.173469387755105" stroke-width="0.1" stroke="black" /><line x1="192.9848484848485" y1="63.015151515151516" x2="194.22375690607734" y2="63.19377990430622" stroke-width="0.1" stroke="black" /><line x1="324.5" y1="63.33678756476684" x2="326.2248803827751" y2="62.211711711711715" stroke-width="0.1" stroke="black" /><line x1="220.5" y1="63.35353535353536" x2="228.5" y2="63.30810810810811" stroke-width="0.1" stroke="black" /><line x1="290.5" y1="63.224242424242426" x2="295.5" y2="63.19496855345912" stroke-width="0.1" stroke="black" /><line x1="300.9353741496599" y1="63.064625850340136" x2="302.33009708737865" y2="63.173469387755105" stroke-width="0.1" stroke="black" /><line x1="321.7175572519084" y1="63.18316831683168" x2="324.5" y2="63.33678756476684" stroke-width="0.1" stroke="black" /></svg> 